<svg width="178" height="72" viewBox="0 0 178 72" fill="none" xmlns="http://www.w3.org/2000/svg">
<path fill-rule="evenodd" clip-rule="evenodd" d="M39.9891 28.4522L43.9939 10.9827L46.265 11.5017L42.2602 28.9712L39.9891 28.4522ZM68.2877 16.2464L43.9019 30.8043L42.7093 28.8055L67.0915 14.2477L68.2841 16.2464H68.2877ZM37.2579 29.3798L32.1636 22.1027L34.0703 20.7665L39.1646 28.0436L37.2579 29.3798ZM35.7561 32.3907L8.4624 25.8424L9.00717 23.5787L36.3009 30.1307L35.7561 32.3944V32.3907ZM57.2267 37.4851L43.762 34.2091L44.3142 31.9453L57.7788 35.2213L57.2267 37.4851ZM37.3573 35.1698L30.0802 39.5353L28.8802 37.5366L36.1573 33.1711L37.3573 35.1698ZM42.8381 34.6397L49.7545 45.5572L47.7852 46.8051L40.8689 35.8876L42.8381 34.6397ZM40.4382 36.263L34.9795 58.8268L32.7157 58.2784L38.1745 35.7146L40.4382 36.263Z" fill="#135C8E"/>
<path fill-rule="evenodd" clip-rule="evenodd" d="M74.6079 17.2844C78.3477 17.2844 81.3771 14.255 81.3771 10.5152C81.3771 6.77547 78.3477 3.7461 74.6079 3.7461C70.8682 3.7461 67.8388 6.77547 67.8388 10.5152C67.8388 14.255 70.8682 17.2844 74.6079 17.2844ZM74.6079 19.6144C79.6323 19.6144 83.7071 15.5396 83.7071 10.5152C83.7071 5.49084 79.6323 1.41611 74.6079 1.41611C69.5835 1.41611 65.5088 5.49084 65.5088 10.5152C65.5088 15.5396 69.5835 19.6144 74.6079 19.6144Z" fill="#135C8E"/>
<path fill-rule="evenodd" clip-rule="evenodd" d="M62.9615 41.3058C65.0927 41.3058 66.819 39.5795 66.819 37.4482C66.819 35.317 65.0927 33.5907 62.9615 33.5907C60.8303 33.5907 59.1039 35.317 59.1039 37.4482C59.1039 39.5795 60.8303 41.3058 62.9615 41.3058ZM62.9615 43.6358C66.3773 43.6358 69.149 40.8641 69.149 37.4482C69.149 34.0324 66.3773 31.2607 62.9615 31.2607C59.5456 31.2607 56.7739 34.0324 56.7739 37.4482C56.7739 40.8641 59.5456 43.6358 62.9615 43.6358Z" fill="#135C8E"/>
<path fill-rule="evenodd" clip-rule="evenodd" d="M46.2207 9.27849C47.5458 9.27849 48.6243 8.20367 48.6243 6.87487C48.6243 5.54607 47.5495 4.47126 46.2207 4.47126C44.8919 4.47126 43.817 5.54607 43.817 6.87487C43.817 8.20367 44.8919 9.27849 46.2207 9.27849ZM46.2207 11.6085C48.8341 11.6085 50.9506 9.49198 50.9506 6.87855C50.9506 4.26513 48.8341 2.14862 46.2207 2.14862C43.6072 2.14862 41.4907 4.26513 41.4907 6.87855C41.4907 9.49198 43.6072 11.6085 46.2207 11.6085Z" fill="#135C8E"/>
<path fill-rule="evenodd" clip-rule="evenodd" d="M30.2054 20.9248C32.7379 20.9248 34.7918 18.8708 34.7918 16.3384C34.7918 13.806 32.7379 11.752 30.2054 11.752C27.673 11.752 25.6191 13.806 25.6191 16.3384C25.6191 18.8708 27.673 20.9248 30.2054 20.9248ZM30.2054 23.2548C34.0262 23.2548 37.1218 20.1592 37.1218 16.3384C37.1218 12.5176 34.0262 9.42203 30.2054 9.42203C26.3847 9.42203 23.2891 12.5176 23.2891 16.3384C23.2891 20.1592 26.3847 23.2548 30.2054 23.2548Z" fill="#135C8E"/>
<path fill-rule="evenodd" clip-rule="evenodd" d="M4.72993 26.0191C6.05505 26.0191 7.13355 24.9443 7.13355 23.6155C7.13355 22.2867 6.05873 21.2119 4.72993 21.2119C3.40113 21.2119 2.32632 22.2867 2.32632 23.6155C2.32632 24.9443 3.40113 26.0191 4.72993 26.0191ZM4.72993 28.3491C7.34336 28.3491 9.45986 26.2326 9.45986 23.6192C9.45986 21.0058 7.34336 18.8893 4.72993 18.8893C2.11651 18.8893 0 21.0058 0 23.6192C0 26.2326 2.11651 28.3491 4.72993 28.3491Z" fill="#135C8E"/>
<path fill-rule="evenodd" clip-rule="evenodd" d="M24.7463 44.9462C27.0763 44.9462 28.9683 43.0542 28.9683 40.7242C28.9683 38.3942 27.0763 36.5022 24.7463 36.5022C22.4163 36.5022 20.5243 38.3942 20.5243 40.7242C20.5243 43.0542 22.4163 44.9462 24.7463 44.9462ZM24.7463 47.2762C28.3646 47.2762 31.2983 44.3425 31.2983 40.7242C31.2983 37.1059 28.3646 34.1722 24.7463 34.1722C21.128 34.1722 18.1943 37.1059 18.1943 40.7242C18.1943 44.3425 21.128 47.2762 24.7463 47.2762Z" fill="#135C8E"/>
<path fill-rule="evenodd" clip-rule="evenodd" d="M32.0271 68.9639C34.3571 68.9639 36.249 67.072 36.249 64.742C36.249 62.412 34.3571 60.52 32.0271 60.52C29.6971 60.52 27.8051 62.412 27.8051 64.742C27.8051 67.072 29.6971 68.9639 32.0271 68.9639ZM32.0271 71.2939C35.6454 71.2939 38.579 68.3603 38.579 64.742C38.579 61.1237 35.6454 58.19 32.0271 58.19C28.4088 58.19 25.4751 61.1237 25.4751 64.742C25.4751 68.3603 28.4088 71.2939 32.0271 71.2939Z" fill="#135C8E"/>
<path fill-rule="evenodd" clip-rule="evenodd" d="M51.6798 52.9521C53.2074 52.9521 54.4441 51.7153 54.4441 50.1878C54.4441 48.6602 53.2074 47.4234 51.6798 47.4234C50.1522 47.4234 48.9154 48.6602 48.9154 50.1878C48.9154 51.7153 50.1522 52.9521 51.6798 52.9521ZM51.6798 55.2821C54.492 55.2821 56.7741 52.9999 56.7741 50.1878C56.7741 47.3756 54.492 45.0934 51.6798 45.0934C48.8676 45.0934 46.5854 47.3756 46.5854 50.1878C46.5854 52.9999 48.8676 55.2821 51.6798 55.2821Z" fill="#135C8E"/>
<path d="M44.4024 31.9895C44.4024 34.4005 42.4479 36.355 40.0369 36.355C37.6259 36.355 35.6714 34.4005 35.6714 31.9895C35.6714 29.5785 37.6259 27.624 40.0369 27.624C42.4479 27.624 44.4024 29.5785 44.4024 31.9895Z" fill="#135C8E"/>
<path d="M89.2723 37.7685C89.2723 38.9574 89.0846 40.0396 88.7055 41.015C88.33 41.9904 87.7963 42.826 87.1116 43.518C86.4233 44.2137 85.6025 44.7511 84.6418 45.1339C83.6811 45.5094 82.6173 45.6971 81.4504 45.6971H75.5132V29.8251H81.4504C82.6173 29.8251 83.6811 30.0165 84.6418 30.3994C85.6025 30.7748 86.4233 31.3159 87.1116 32.0153C87.7963 32.7109 88.33 33.5428 88.7055 34.5183C89.0809 35.4937 89.2723 36.5759 89.2723 37.7648V37.7685ZM87.0675 37.7685C87.0675 36.793 86.935 35.9207 86.6699 35.155C86.4049 34.3857 86.0295 33.7379 85.5399 33.2042C85.054 32.6741 84.4614 32.2656 83.7657 31.9858C83.07 31.7061 82.3007 31.5662 81.4504 31.5662H77.6739V43.9597H81.4504C82.3007 43.9597 83.07 43.8198 83.7657 43.5401C84.4614 43.2603 85.0503 42.8554 85.5399 42.3328C86.0258 41.8027 86.4049 41.1512 86.6699 40.3819C86.935 39.6126 87.0675 38.7439 87.0675 37.7685Z" fill="#135C8E"/>
<path d="M96.3285 34.3047C96.9984 34.3047 97.6205 34.4189 98.1873 34.6471C98.7579 34.8679 99.2474 35.1918 99.6597 35.6225C100.072 36.0421 100.396 36.5685 100.624 37.1942C100.86 37.8163 100.977 38.523 100.977 39.3218C100.977 39.631 100.944 39.8371 100.878 39.9439C100.812 40.0469 100.687 40.0985 100.503 40.0985H93.0378C93.0525 40.8089 93.1482 41.4236 93.3249 41.9499C93.5016 42.4726 93.7482 42.9143 94.0574 43.2677C94.3666 43.6137 94.7383 43.875 95.1653 44.0554C95.5923 44.2247 96.0745 44.3094 96.6046 44.3094C97.0978 44.3094 97.5248 44.2542 97.8781 44.1437C98.2389 44.026 98.5481 43.9008 98.8094 43.7683C99.0671 43.6358 99.2806 43.5143 99.4536 43.4039C99.6302 43.2861 99.7812 43.2272 99.9063 43.2272C100.068 43.2272 100.193 43.2898 100.282 43.4149L100.834 44.1364C100.591 44.4308 100.296 44.6885 99.9578 44.913C99.6192 45.1265 99.2511 45.3032 98.8609 45.4431C98.4781 45.583 98.0769 45.686 97.6646 45.7523C97.2524 45.8259 96.8401 45.8627 96.4352 45.8627C95.6586 45.8627 94.9445 45.7339 94.2856 45.4762C93.6341 45.2112 93.0709 44.8247 92.5924 44.3241C92.1212 43.8161 91.7495 43.1867 91.4844 42.4395C91.2194 41.6923 91.0869 40.8383 91.0869 39.8702C91.0869 39.0862 91.2047 38.3574 91.4403 37.6764C91.6832 36.9955 92.0329 36.4102 92.482 35.917C92.931 35.4164 93.4832 35.0225 94.131 34.7428C94.7825 34.4557 95.5113 34.3121 96.3248 34.3121L96.3285 34.3047ZM96.3727 35.755C95.4193 35.755 94.6684 36.0311 94.1236 36.5869C93.5789 37.1317 93.2365 37.8936 93.104 38.869H99.2069C99.2069 38.4126 99.1444 37.993 99.0192 37.6175C98.8941 37.2347 98.71 36.9034 98.4671 36.6311C98.2241 36.3513 97.926 36.1378 97.5689 35.9869C97.2229 35.8323 96.8254 35.755 96.3727 35.755Z" fill="#135C8E"/>
<path d="M101.806 34.4814H103.422C103.576 34.4814 103.705 34.5219 103.808 34.6029C103.911 34.6839 103.985 34.7796 104.029 34.89L106.874 42.1119C106.977 42.3769 107.058 42.6419 107.117 42.9106C107.176 43.1757 107.231 43.437 107.283 43.6983C107.342 43.4407 107.404 43.1793 107.471 42.9106C107.537 42.6456 107.622 42.3806 107.725 42.1119L110.603 34.89C110.647 34.7722 110.717 34.6765 110.813 34.6029C110.916 34.5219 111.041 34.4814 111.188 34.4814H112.727L108.152 45.7007H106.366L101.791 34.4814H101.806Z" fill="#135C8E"/>
<path d="M118.719 34.3047C119.389 34.3047 120.011 34.4189 120.582 34.6471C121.149 34.8679 121.642 35.1918 122.054 35.6225C122.467 36.0421 122.79 36.5685 123.019 37.1942C123.254 37.8163 123.372 38.523 123.372 39.3218C123.372 39.631 123.339 39.8371 123.273 39.9439C123.206 40.0469 123.081 40.0985 122.897 40.0985H115.432C115.447 40.8089 115.543 41.4236 115.719 41.9499C115.896 42.4726 116.139 42.9143 116.448 43.2677C116.757 43.6137 117.129 43.875 117.556 44.0554C117.983 44.2247 118.465 44.3094 118.995 44.3094C119.489 44.3094 119.916 44.2542 120.269 44.1437C120.63 44.026 120.943 43.9008 121.2 43.7683C121.458 43.6358 121.671 43.5143 121.841 43.4039C122.017 43.2861 122.168 43.2272 122.294 43.2272C122.455 43.2272 122.581 43.2898 122.669 43.4149L123.221 44.1364C122.978 44.4308 122.687 44.6885 122.345 44.913C122.006 45.1265 121.638 45.3032 121.248 45.4431C120.865 45.583 120.464 45.686 120.052 45.7523C119.64 45.8259 119.227 45.8627 118.822 45.8627C118.046 45.8627 117.332 45.7339 116.673 45.4762C116.021 45.2112 115.458 44.8247 114.98 44.3241C114.508 43.8161 114.137 43.1867 113.872 42.4395C113.607 41.6923 113.474 40.8383 113.474 39.8702C113.474 39.0862 113.592 38.3574 113.827 37.6764C114.07 36.9955 114.42 36.4102 114.869 35.917C115.322 35.4164 115.87 35.0225 116.518 34.7428C117.17 34.4557 117.899 34.3121 118.712 34.3121L118.719 34.3047ZM118.764 35.755C117.81 35.755 117.063 36.0311 116.515 36.5869C115.97 37.1317 115.627 37.8936 115.495 38.869H121.598C121.598 38.4126 121.535 37.993 121.41 37.6175C121.285 37.2347 121.101 36.9034 120.854 36.6311C120.611 36.3513 120.313 36.1378 119.956 35.9869C119.61 35.8323 119.209 35.755 118.76 35.755H118.764Z" fill="#135C8E"/>
<path d="M128.352 43.8971H135.221V45.7044H126.203V29.8325H128.352V43.9008V43.8971Z" fill="#519FD7"/>
<path d="M141.327 34.3047C142.001 34.3047 142.619 34.4189 143.19 34.6471C143.76 34.8679 144.25 35.1918 144.662 35.6225C145.074 36.0421 145.398 36.5685 145.627 37.1942C145.862 37.8163 145.98 38.523 145.98 39.3218C145.98 39.631 145.947 39.8371 145.88 39.9439C145.814 40.0469 145.689 40.0985 145.505 40.0985H138.04C138.055 40.8089 138.151 41.4236 138.327 41.9499C138.504 42.4726 138.747 42.9143 139.06 43.2677C139.369 43.6137 139.741 43.875 140.168 44.0554C140.595 44.2247 141.077 44.3094 141.607 44.3094C142.1 44.3094 142.527 44.2542 142.881 44.1437C143.241 44.026 143.551 43.9008 143.812 43.7683C144.07 43.6358 144.283 43.5143 144.456 43.4039C144.633 43.2861 144.784 43.2272 144.909 43.2272C145.071 43.2272 145.196 43.2898 145.284 43.4149L145.836 44.1364C145.593 44.4308 145.299 44.6885 144.96 44.913C144.622 45.1265 144.254 45.3032 143.863 45.4431C143.481 45.583 143.079 45.686 142.667 45.7523C142.255 45.8259 141.843 45.8627 141.438 45.8627C140.661 45.8627 139.947 45.7339 139.288 45.4762C138.64 45.2112 138.073 44.8247 137.595 44.3241C137.124 43.8161 136.752 43.1867 136.487 42.4395C136.222 41.6923 136.089 40.8383 136.089 39.8702C136.089 39.0862 136.207 38.3574 136.443 37.6764C136.686 36.9955 137.035 36.4102 137.484 35.917C137.933 35.4164 138.486 35.0225 139.133 34.7428C139.785 34.4557 140.514 34.3121 141.327 34.3121V34.3047ZM141.371 35.755C140.418 35.755 139.667 36.0311 139.122 36.5869C138.578 37.1317 138.235 37.8936 138.103 38.869H144.206C144.206 38.4126 144.143 37.993 144.018 37.6175C143.893 37.2347 143.709 36.9034 143.466 36.6311C143.223 36.3513 142.925 36.1378 142.568 35.9869C142.222 35.8323 141.824 35.755 141.371 35.755Z" fill="#519FD7"/>
<path d="M156.743 45.7008H155.867C155.675 45.7008 155.521 45.6713 155.403 45.6124C155.285 45.5535 155.208 45.4284 155.171 45.237L154.95 44.1953C154.656 44.4603 154.365 44.6996 154.085 44.9168C153.805 45.1229 153.507 45.2996 153.198 45.4468C152.889 45.5867 152.554 45.6934 152.201 45.767C151.855 45.8407 151.464 45.8775 151.037 45.8775C150.61 45.8775 150.191 45.8186 149.808 45.7008C149.433 45.5756 149.101 45.3916 148.822 45.1486C148.542 44.9057 148.317 44.6002 148.144 44.2284C147.982 43.853 147.901 43.4076 147.901 42.8996C147.901 42.4579 148.023 42.0309 148.266 41.626C148.509 41.2138 148.903 40.8457 149.44 40.5291C149.985 40.2126 150.699 39.9549 151.579 39.7525C152.458 39.5463 153.529 39.4286 154.803 39.3991V38.5231C154.803 37.6507 154.615 36.9955 154.24 36.5501C153.872 36.101 153.32 35.8728 152.591 35.8728C152.112 35.8728 151.704 35.9354 151.372 36.0606C151.049 36.1783 150.761 36.3145 150.518 36.4691C150.283 36.6164 150.077 36.7526 149.896 36.8777C149.727 36.9955 149.558 37.0544 149.388 37.0544C149.256 37.0544 149.138 37.0213 149.035 36.955C148.939 36.8814 148.862 36.7931 148.803 36.69L148.45 36.0569C149.072 35.4569 149.738 35.0115 150.456 34.717C151.17 34.4226 151.965 34.2753 152.837 34.2753C153.463 34.2753 154.023 34.3784 154.509 34.5845C154.994 34.7907 155.407 35.0778 155.738 35.4495C156.069 35.8176 156.32 36.2667 156.493 36.7894C156.662 37.3121 156.747 37.89 156.747 38.5157V45.6934L156.743 45.7008ZM151.626 44.4935C151.972 44.4935 152.293 44.4603 152.58 44.3941C152.867 44.3205 153.136 44.2211 153.39 44.0959C153.647 43.9634 153.89 43.8051 154.122 43.6211C154.358 43.437 154.586 43.2272 154.807 42.988V40.6506C153.898 40.6801 153.128 40.7537 152.491 40.8715C151.855 40.9819 151.339 41.1291 150.942 41.3132C150.544 41.4972 150.25 41.7144 150.066 41.9684C149.889 42.2187 149.801 42.4984 149.801 42.8113C149.801 43.1242 149.849 43.3597 149.944 43.5769C150.04 43.7904 150.169 43.9671 150.331 44.107C150.493 44.2395 150.684 44.3389 150.905 44.4051C151.126 44.464 151.369 44.4935 151.626 44.4935Z" fill="#519FD7"/>
<path d="M159.728 45.7008V34.4815H160.858C161.072 34.4815 161.219 34.5219 161.3 34.6029C161.381 34.6839 161.436 34.8238 161.466 35.0225L161.598 36.771C161.981 35.9869 162.456 35.3796 163.015 34.9416C163.586 34.4999 164.248 34.2753 165.01 34.2753C165.32 34.2753 165.603 34.3121 165.853 34.3858C166.104 34.452 166.335 34.5477 166.553 34.6729L166.299 36.1452C166.247 36.3293 166.133 36.4213 165.956 36.4213C165.853 36.4213 165.695 36.3882 165.478 36.3219C165.264 36.2483 164.966 36.2115 164.58 36.2115C163.891 36.2115 163.317 36.4102 162.85 36.8115C162.393 37.209 162.007 37.7906 161.698 38.5488V45.6934H159.725L159.728 45.7008Z" fill="#519FD7"/>
<path d="M168.665 45.7008V34.4814H169.84C170.119 34.4814 170.296 34.6176 170.37 34.89L170.524 36.1084C171.01 35.571 171.555 35.1329 172.151 34.8017C172.758 34.4704 173.454 34.3047 174.246 34.3047C174.86 34.3047 175.398 34.4078 175.861 34.6139C176.333 34.8127 176.726 35.0998 177.036 35.4789C177.352 35.847 177.591 36.2961 177.757 36.8188C177.919 37.3415 178 37.9231 178 38.5562V45.7008H176.027V38.5562C176.027 37.7059 175.832 37.0507 175.442 36.5832C175.059 36.1121 174.466 35.8728 173.668 35.8728C173.086 35.8728 172.538 36.0127 172.03 36.2924C171.529 36.5722 171.062 36.955 170.635 37.4335V45.6971H168.662L168.665 45.7008Z" fill="#519FD7"/>
<path d="M86.0519 5.39513V1.71425H84.7378V0.963348H88.2567V1.71425H86.9463V5.39513H86.0519Z" fill="#135C8E"/>
<path d="M88.8237 5.3951V0.963318H90.1636L90.966 3.98532L91.7611 0.963318H93.1046V5.3951H92.2727V1.90562L91.393 5.39142H90.5317L89.6556 1.90562V5.3951H88.8237Z" fill="#135C8E"/>
</svg>
