<?xml version="1.0" encoding="UTF-8"?>
<svg id="Layer_1" data-name="Layer 1" xmlns="http://www.w3.org/2000/svg" viewBox="0 0 838.45 224">
  <defs>
    <style>
      .cls-1 {
        fill: #eb0a1e;
      }

      .cls-2 {
        fill: #fff;
      }
    </style>
  </defs>
  <path d="m773.6,119.06l13.13-34.42,13.11,34.42h-26.24Zm26.76-53.97h-27.27l-38.1,93.34h23.62l8.68-22.78h38.87l8.68,22.78h23.61l-38.09-93.34Zm-192.31,77.11c-15.39,0-27.84-13.88-27.84-31.01s12.45-31.02,27.84-31.02,27.83,13.89,27.83,31.02-12.47,31.01-27.83,31.01m0-80.31c-27.24,0-49.32,22.08-49.32,49.3s22.08,49.29,49.32,49.29,49.31-22.06,49.31-49.29-22.09-49.3-49.31-49.3m-194.58,80.31c-15.36,0-27.82-13.88-27.82-31.01s12.46-31.02,27.82-31.02,27.84,13.89,27.84,31.02-12.46,31.01-27.84,31.01m0-80.31c-27.23,0-49.29,22.08-49.29,49.3s22.06,49.29,49.29,49.29,49.31-22.06,49.31-49.29-22.08-49.3-49.31-49.3m121.88,3.2l-24.16,37.76-24.18-37.76h-23.63l37.4,58.53v34.8h20.8v-34.8l37.4-58.54h-23.63Zm204.62,0h-79.81v17.9h29.56v75.44h20.82v-75.44h29.43v-17.9Zm-459.96,17.9h29.57v75.44h20.81v-75.44h29.44v-17.9h-79.82v17.9Z"/>
  <g>
    <rect class="cls-1" width="224" height="224"/>
    <path class="cls-2" d="m149.36,63.15c-10.39-3.34-23.33-5.32-37.35-5.32s-26.96,1.97-37.36,5.32c-27.65,8.89-46.65,27.35-46.65,48.68,0,30.01,37.61,54.34,84,54.34s84-24.33,84-54.34c0-21.33-19-39.79-46.64-48.68m-37.35,79.66c-6.92,0-12.58-13.61-12.91-30.72,4.16.37,8.48.58,12.91.58s8.74-.2,12.91-.58c-.33,17.11-5.99,30.72-12.91,30.72m-12.04-44.11c1.89-12.01,6.56-20.51,12.04-20.51s10.14,8.5,12.03,20.51c-3.85.35-7.88.54-12.03.54s-8.19-.19-12.04-.54m31.42-.91c-2.81-18.84-10.43-32.35-19.39-32.35s-16.58,13.51-19.39,32.35c-17.06-2.66-28.99-8.73-28.99-15.79,0-9.52,21.66-17.23,48.38-17.23s48.38,7.71,48.38,17.23c0,7.06-11.93,13.12-28.99,15.79m-91.13,12.05c0-9.2,3.54-17.82,9.72-25.24-.07.52-.11,1.03-.11,1.56,0,11.57,17.38,21.41,41.62,25.03-.02.87-.03,1.75-.03,2.63,0,21.52,5.97,39.74,14.22,46.03-36.66-2.24-65.42-23.77-65.42-50.01m78.07,50.01c8.25-6.28,14.22-24.51,14.22-46.03,0-.88,0-1.76-.03-2.63,24.23-3.62,41.62-13.45,41.62-25.03,0-.52-.04-1.04-.11-1.56,6.18,7.42,9.72,16.04,9.72,25.24,0,26.24-28.76,47.77-65.41,50.01"/>
  </g>
</svg>