<?xml version="1.0" encoding="UTF-8"?>
<svg width="525px" height="56px" viewBox="0 0 525 56" version="1.1" xmlns="http://www.w3.org/2000/svg" xmlns:xlink="http://www.w3.org/1999/xlink">
    <title>Logo/Color/Horizontal</title>
    <defs>
        <polygon id="path-1" points="0.06 0.301 110.029 0.301 110.029 55.469 0.06 55.469"></polygon>
    </defs>
    <g id="Logo/Color/Horizontal" stroke="none" stroke-width="1" fill="none" fill-rule="evenodd">
        <g id="FHB-Logo-2014-Horizontal-4C-no-(r)">
            <g>
                <g id="Group-4">
                    <mask id="mask-2" fill="white">
                        <use xlink:href="#path-1"></use>
                    </mask>
                    <g id="Clip-2"></g>
                    <path d="M67.859,16.709 C46.471,16.709 29.13,34.063 29.13,55.469 L52.567,55.469 C52.567,41.873 63.156,29.474 79.775,29.474 C94.124,29.474 105.136,41.113 105.136,55.469 L106.59,55.469 C106.59,34.063 89.251,16.709 67.859,16.709" id="Fill-1" fill="#F0AB36" mask="url(#mask-2)"></path>
                    <path d="M55.014,0.301 C24.63,0.301 0,25.002 0,55.469 L26.06,55.469 C26.06,32.444 44.675,13.775 67.636,13.775 C90.598,13.775 108.599,32.444 108.599,55.469 L110.029,55.469 C110.029,25.002 85.395,0.301 55.014,0.301" id="Fill-3" fill="#A1252C" mask="url(#mask-2)"></path>
                </g>
                <path d="M79.423,32.415 C66.312,32.415 55.683,42.737 55.683,55.469 L57.139,55.469 C57.139,49.275 62.16,44.253 68.354,44.253 C74.549,44.253 79.571,49.275 79.571,55.469 L103.16,55.469 C103.16,42.737 92.531,32.415 79.423,32.415" id="Fill-5" fill="#6A2427"></path>
                <polyline id="Fill-6" fill="#3F3B36" points="128.905 55.432 133.654 55.432 133.654 42.326 145.949 42.326 145.949 38.594 133.654 38.594 133.654 30.783 148.493 30.783 148.493 26.808 128.905 26.808 128.905 55.432"></polyline>
                <polygon id="Fill-7" fill="#3F3B36" points="153.382 31.291 158.086 31.291 158.086 26.808 153.382 26.808"></polygon>
                <polygon id="Fill-8" fill="#3F3B36" points="153.538 55.432 157.975 55.432 157.975 34.009 153.538 34.009"></polygon>
                <path d="M174.283,33.401 C173.057,33.401 171.846,33.762 170.682,34.473 C169.808,35.009 168.963,35.969 168.122,37.39 L168.122,34.009 L164.11,34.009 L164.11,55.432 L168.547,55.432 L168.547,44.15 C168.63,42.145 169.276,40.507 170.467,39.284 C171.666,38.056 173.134,37.458 174.953,37.458 L176.134,37.458 L176.134,33.525 L175.712,33.484 C175.136,33.43 174.655,33.401 174.283,33.401" id="Fill-9" fill="#3F3B36"></path>
                <path d="M191.682,42.698 L187.289,41.981 C184.173,41.46 184.173,40.048 184.173,39.585 C184.173,38.798 184.547,38.197 185.314,37.748 C186.153,37.26 187.257,37.011 188.594,37.011 C191.285,37.011 193.006,37.968 193.855,39.936 L194.005,40.28 L198.105,39.478 L197.94,38.976 C196.73,35.304 193.533,33.441 188.438,33.441 C185.801,33.441 183.663,34.058 182.083,35.272 C180.468,36.516 179.648,38.091 179.648,39.953 C179.648,41.644 180.258,43.025 181.461,44.061 C182.622,45.059 184.191,45.735 186.127,46.073 L190.881,46.893 C194.354,47.476 194.354,48.993 194.354,49.492 C194.354,50.402 193.933,51.094 193.067,51.603 C192.131,52.152 190.964,52.431 189.599,52.431 C185.84,52.431 183.681,51.273 182.995,48.893 L182.878,48.485 L178.594,49.289 L178.756,49.793 C180.083,53.911 183.565,56 189.107,56 C192.03,56 194.416,55.389 196.197,54.182 C198.036,52.937 198.968,51.273 198.968,49.233 C198.968,45.695 196.517,43.497 191.682,42.698" id="Fill-10" fill="#3F3B36"></path>
                <path d="M212.922,52.552 C210.773,52.552 209.772,51.692 209.772,49.849 L209.772,37.437 L214.815,37.437 L214.815,34.009 L209.772,34.009 L209.772,28.53 L205.595,28.895 L205.439,34.009 L201.432,34.009 L201.432,37.437 L205.426,37.437 L205.426,49.319 C205.426,53.689 207.848,56 212.431,56 C213.35,56 214.45,55.923 215.699,55.773 L216.11,55.724 L216.11,52.256 L215.576,52.334 C214.588,52.478 213.695,52.552 212.922,52.552" id="Fill-11" fill="#3F3B36"></path>
                <polyline id="Fill-12" fill="#3F3B36" points="128.905 55.432 133.654 55.432 133.654 42.326 145.949 42.326 145.949 38.594 133.654 38.594 133.654 30.783 148.493 30.783 148.493 26.808 128.905 26.808 128.905 55.432"></polyline>
                <polygon id="Fill-13" fill="#3F3B36" points="153.382 31.291 158.086 31.291 158.086 26.808 153.382 26.808"></polygon>
                <polygon id="Fill-14" fill="#3F3B36" points="153.538 55.432 157.975 55.432 157.975 34.009 153.538 34.009"></polygon>
                <path d="M174.283,33.401 C173.057,33.401 171.846,33.762 170.682,34.473 C169.808,35.009 168.963,35.969 168.122,37.39 L168.122,34.009 L164.11,34.009 L164.11,55.432 L168.547,55.432 L168.547,44.15 C168.63,42.145 169.276,40.507 170.467,39.284 C171.666,38.056 173.134,37.458 174.953,37.458 L176.134,37.458 L176.134,33.525 L175.712,33.484 C175.136,33.43 174.655,33.401 174.283,33.401" id="Fill-15" fill="#3F3B36"></path>
                <path d="M191.682,42.698 L187.289,41.981 C184.173,41.46 184.173,40.048 184.173,39.585 C184.173,38.798 184.547,38.197 185.314,37.748 C186.153,37.26 187.257,37.011 188.594,37.011 C191.285,37.011 193.006,37.968 193.855,39.936 L194.005,40.28 L198.105,39.478 L197.94,38.976 C196.73,35.304 193.533,33.441 188.438,33.441 C185.801,33.441 183.663,34.058 182.083,35.272 C180.468,36.516 179.648,38.091 179.648,39.953 C179.648,41.644 180.258,43.025 181.461,44.061 C182.622,45.059 184.191,45.735 186.127,46.073 L190.881,46.893 C194.354,47.476 194.354,48.993 194.354,49.492 C194.354,50.402 193.933,51.094 193.067,51.603 C192.131,52.152 190.964,52.431 189.599,52.431 C185.84,52.431 183.681,51.273 182.995,48.893 L182.878,48.485 L178.594,49.289 L178.756,49.793 C180.083,53.911 183.565,56 189.107,56 C192.03,56 194.416,55.389 196.197,54.182 C198.036,52.937 198.968,51.273 198.968,49.233 C198.968,45.695 196.517,43.497 191.682,42.698" id="Fill-16" fill="#3F3B36"></path>
                <path d="M212.922,52.552 C210.773,52.552 209.772,51.692 209.772,49.849 L209.772,37.437 L214.815,37.437 L214.815,34.009 L209.772,34.009 L209.772,28.53 L205.595,28.895 L205.439,34.009 L201.432,34.009 L201.432,37.437 L205.426,37.437 L205.426,49.319 C205.426,53.689 207.848,56 212.431,56 C213.35,56 214.45,55.923 215.699,55.773 L216.11,55.724 L216.11,52.256 L215.576,52.334 C214.588,52.478 213.695,52.552 212.922,52.552" id="Fill-17" fill="#3F3B36"></path>
                <polyline id="Fill-18" fill="#3F3B36" points="251.668 38.27 238.476 38.27 238.476 26.808 233.727 26.808 233.727 55.432 238.476 55.432 238.476 42.245 251.668 42.245 251.668 55.432 256.417 55.432 256.417 26.808 251.668 26.808 251.668 38.27"></polyline>
                <path d="M277.301,46.062 C277.301,47.836 276.677,49.34 275.392,50.658 C274.11,51.974 272.515,52.612 270.515,52.612 C269.074,52.612 267.972,52.294 267.236,51.665 C266.513,51.049 266.161,50.327 266.161,49.459 C266.161,48.046 266.833,46.996 268.215,46.25 C269.672,45.463 271.768,45.064 274.442,45.064 C275.102,45.064 276.028,45.098 277.268,45.164 C277.29,45.498 277.301,45.797 277.301,46.062 Z M281.559,50.988 L281.559,42.286 C281.559,39.086 280.854,36.785 279.463,35.448 C278.077,34.117 275.742,33.441 272.523,33.441 C266.452,33.441 262.95,35.471 262.114,39.473 L262.014,39.952 L266.161,40.603 L266.261,40.182 C266.789,37.939 268.67,36.85 272.01,36.85 C273.392,36.85 274.51,37.053 275.333,37.452 C276.122,37.834 276.618,38.318 276.852,38.933 C277.078,39.529 277.205,40.493 277.23,41.802 C276.102,41.76 275.262,41.739 274.711,41.739 C269.929,41.739 266.615,42.42 264.583,43.822 C262.523,45.242 261.479,47.09 261.479,49.315 C261.479,51.151 262.215,52.744 263.665,54.052 C265.1,55.344 267.165,56 269.801,56 C273.135,56 275.667,54.884 277.347,52.68 C277.446,53.786 277.545,54.571 277.646,55.06 L277.724,55.432 L282.164,55.432 L282.013,54.848 C281.711,53.686 281.559,52.388 281.559,50.988 L281.559,50.988 Z" id="Fill-19" fill="#3F3B36"></path>
                <polyline id="Fill-20" fill="#3F3B36" points="306.396 48.326 301.66 34.009 298.418 34.009 294.067 48.194 289.509 34.009 285.009 34.009 292.09 55.432 295.651 55.432 299.944 41.293 304.621 55.432 308.139 55.432 314.922 34.009 311.124 34.009 306.396 48.326"></polyline>
                <path d="M333.382,46.062 C333.382,47.837 332.758,49.34 331.473,50.658 C330.191,51.974 328.597,52.612 326.596,52.612 C325.155,52.612 324.053,52.294 323.318,51.665 C322.595,51.049 322.243,50.327 322.243,49.459 C322.243,48.046 322.914,46.996 324.296,46.25 C325.753,45.463 327.849,45.064 330.523,45.064 C331.184,45.064 332.11,45.098 333.349,45.164 C333.371,45.498 333.382,45.797 333.382,46.062 Z M337.641,50.988 L337.641,42.286 C337.641,39.086 336.936,36.785 335.545,35.448 C334.158,34.117 331.823,33.441 328.604,33.441 C322.533,33.441 319.031,35.471 318.195,39.473 L318.096,39.952 L322.242,40.603 L322.342,40.182 C322.87,37.939 324.751,36.85 328.092,36.85 C329.474,36.85 330.591,37.053 331.414,37.452 C332.203,37.834 332.699,38.318 332.933,38.933 C333.159,39.53 333.287,40.494 333.312,41.802 C332.183,41.76 331.343,41.739 330.792,41.739 C326.01,41.739 322.696,42.42 320.664,43.822 C318.604,45.243 317.561,47.091 317.561,49.315 C317.561,51.151 318.296,52.744 319.745,54.052 C321.182,55.344 323.246,56 325.882,56 C329.216,56 331.748,54.884 333.428,52.68 C333.527,53.783 333.625,54.568 333.727,55.06 L333.804,55.432 L338.245,55.432 L338.094,54.848 C337.793,53.687 337.641,52.39 337.641,50.988 L337.641,50.988 Z" id="Fill-21" fill="#3F3B36"></path>
                <polygon id="Fill-22" fill="#3F3B36" points="343.815 31.291 348.521 31.291 348.521 26.808 343.815 26.808"></polygon>
                <polygon id="Fill-23" fill="#3F3B36" points="343.973 55.432 348.409 55.432 348.409 34.009 343.973 34.009"></polygon>
                <polygon id="Fill-24" fill="#3F3B36" points="354.718 31.291 359.424 31.291 359.424 26.808 354.718 26.808"></polygon>
                <polygon id="Fill-25" fill="#3F3B36" points="354.875 55.432 359.313 55.432 359.313 34.009 354.875 34.009"></polygon>
                <path d="M371.43,46.25 C372.887,45.463 374.982,45.064 377.657,45.064 C378.316,45.064 379.243,45.098 380.482,45.164 C380.504,45.498 380.515,45.797 380.515,46.062 C380.515,47.837 379.891,49.34 378.606,50.658 C377.324,51.974 375.729,52.612 373.729,52.612 C372.289,52.612 371.186,52.294 370.451,51.665 C369.728,51.049 369.376,50.327 369.376,49.459 C369.376,48.046 370.048,46.996 371.43,46.25 Z M384.773,50.988 L384.773,42.286 C384.773,39.086 384.068,36.785 382.678,35.448 C381.291,34.117 378.957,33.441 375.738,33.441 C369.668,33.441 366.165,35.471 365.329,39.472 L365.229,39.952 L369.375,40.603 L369.475,40.182 C370.004,37.939 371.885,36.85 375.225,36.85 C376.606,36.85 377.724,37.053 378.548,37.452 C379.337,37.834 379.833,38.318 380.066,38.933 C380.293,39.53 380.421,40.494 380.445,41.802 C379.316,41.76 378.477,41.739 377.925,41.739 C373.143,41.739 369.829,42.42 367.797,43.822 C365.738,45.242 364.694,47.09 364.694,49.315 C364.694,51.151 365.43,52.744 366.879,54.052 C368.314,55.344 370.379,56 373.016,56 C376.35,56 378.881,54.885 380.562,52.68 C380.66,53.784 380.759,54.568 380.86,55.06 L380.938,55.432 L385.378,55.432 L385.227,54.849 C384.926,53.685 384.773,52.386 384.773,50.988 L384.773,50.988 Z" id="Fill-26" fill="#3F3B36"></path>
                <path d="M406.191,34.707 C404.936,33.868 403.403,33.441 401.637,33.441 C399.004,33.441 396.771,34.566 394.984,36.791 L394.984,34.009 L390.793,34.009 L390.793,55.432 L395.23,55.432 L395.23,43.727 C395.23,41.734 395.8,40.114 396.923,38.912 C398.054,37.702 399.413,37.113 401.078,37.113 C402.27,37.113 403.251,37.455 404.079,38.158 C404.874,38.834 405.276,40.06 405.276,41.799 L405.276,55.432 L409.489,55.432 L409.489,43.118 C409.489,40.444 409.261,38.631 408.79,37.573 C408.317,36.509 407.442,35.545 406.191,34.707" id="Fill-27" fill="#3F3B36"></path>
                <path d="M432.707,42.245 L439.851,42.245 C441.536,42.245 442.809,42.46 443.631,42.883 C444.45,43.306 445.066,43.887 445.517,44.661 C445.964,45.431 446.19,46.276 446.19,47.175 C446.19,48.444 445.714,49.448 444.733,50.242 C443.74,51.047 442.285,51.455 440.409,51.455 L432.707,51.455 L432.707,42.245 Z M444.046,37.387 C443.219,38.242 441.477,38.675 438.868,38.675 L432.707,38.675 L432.707,30.56 L439.851,30.56 C441.695,30.56 443.089,30.922 443.99,31.636 C444.87,32.334 445.298,33.224 445.298,34.353 C445.298,35.523 444.889,36.515 444.046,37.387 Z M445.685,40.21 C448.565,39.002 450.023,36.919 450.023,34.004 C450.023,32.094 449.233,30.396 447.677,28.958 C446.129,27.531 443.751,26.808 440.609,26.808 L428.093,26.808 L428.093,55.432 L440.609,55.432 C444.075,55.432 446.692,54.649 448.388,53.107 C450.096,51.555 450.962,49.598 450.962,47.291 C450.962,45.565 450.4,43.999 449.295,42.632 C448.438,41.576 447.228,40.765 445.685,40.21 L445.685,40.21 Z" id="Fill-28" fill="#3F3B36"></path>
                <path d="M470.955,46.062 C470.955,47.836 470.331,49.34 469.046,50.658 C467.765,51.974 466.17,52.612 464.169,52.612 C462.729,52.612 461.626,52.294 460.891,51.665 C460.167,51.049 459.815,50.327 459.815,49.459 C459.815,48.046 460.487,46.996 461.869,46.25 C463.326,45.463 465.422,45.064 468.097,45.064 C468.756,45.064 469.683,45.098 470.922,45.164 C470.944,45.498 470.955,45.797 470.955,46.062 Z M475.213,50.988 L475.213,42.286 C475.213,39.086 474.508,36.785 473.117,35.448 C471.73,34.117 469.396,33.441 466.178,33.441 C460.107,33.441 456.604,35.471 455.769,39.472 L455.668,39.952 L459.814,40.603 L459.914,40.182 C460.443,37.939 462.324,36.85 465.664,36.85 C467.047,36.85 468.164,37.053 468.987,37.452 C469.776,37.834 470.272,38.318 470.506,38.933 C470.732,39.53 470.86,40.494 470.885,41.802 C469.756,41.76 468.916,41.739 468.365,41.739 C463.583,41.739 460.27,42.42 458.237,43.822 C456.178,45.242 455.134,47.09 455.134,49.315 C455.134,51.151 455.869,52.744 457.318,54.052 C458.755,55.344 460.819,56 463.455,56 C466.789,56 469.321,54.884 471.001,52.68 C471.101,53.789 471.199,54.573 471.3,55.06 L471.377,55.432 L475.818,55.432 L475.667,54.848 C475.365,53.686 475.213,52.386 475.213,50.988 L475.213,50.988 Z" id="Fill-29" fill="#3F3B36"></path>
                <path d="M496.175,34.707 C494.919,33.868 493.387,33.441 491.619,33.441 C488.986,33.441 486.754,34.566 484.967,36.791 L484.967,34.009 L480.776,34.009 L480.776,55.432 L485.214,55.432 L485.214,43.727 C485.214,41.732 485.783,40.113 486.906,38.912 C488.036,37.701 489.396,37.113 491.061,37.113 C492.252,37.113 493.233,37.455 494.062,38.158 C494.856,38.834 495.259,40.059 495.259,41.799 L495.259,55.432 L499.472,55.432 L499.472,43.118 C499.472,40.443 499.243,38.629 498.773,37.573 C498.301,36.51 497.426,35.545 496.175,34.707" id="Fill-30" fill="#3F3B36"></path>
                <polyline id="Fill-31" fill="#3F3B36" points="516.552 41.739 524.118 34.009 519.068 34.009 509.261 43.893 509.261 26.808 504.824 26.808 504.824 55.432 509.261 55.432 509.261 48.823 513.588 44.298 520 55.432 524.723 55.432 516.552 41.739"></polyline>
                <polyline id="Fill-32" fill="#3F3B36" points="251.668 38.27 238.476 38.27 238.476 26.808 233.727 26.808 233.727 55.432 238.476 55.432 238.476 42.245 251.668 42.245 251.668 55.432 256.417 55.432 256.417 26.808 251.668 26.808 251.668 38.27"></polyline>
                <path d="M277.301,46.062 C277.301,47.836 276.677,49.34 275.392,50.658 C274.11,51.974 272.515,52.612 270.515,52.612 C269.074,52.612 267.972,52.294 267.236,51.665 C266.513,51.049 266.161,50.327 266.161,49.459 C266.161,48.046 266.833,46.996 268.215,46.25 C269.672,45.463 271.768,45.064 274.442,45.064 C275.102,45.064 276.028,45.098 277.268,45.164 C277.29,45.498 277.301,45.797 277.301,46.062 Z M281.559,50.988 L281.559,42.286 C281.559,39.086 280.854,36.785 279.463,35.448 C278.077,34.117 275.742,33.441 272.523,33.441 C266.452,33.441 262.95,35.471 262.114,39.473 L262.014,39.952 L266.161,40.603 L266.261,40.182 C266.789,37.939 268.67,36.85 272.01,36.85 C273.392,36.85 274.51,37.053 275.333,37.452 C276.122,37.834 276.618,38.318 276.852,38.933 C277.078,39.529 277.205,40.493 277.23,41.802 C276.102,41.76 275.262,41.739 274.711,41.739 C269.929,41.739 266.615,42.42 264.583,43.822 C262.523,45.242 261.479,47.09 261.479,49.315 C261.479,51.151 262.215,52.744 263.665,54.052 C265.1,55.344 267.165,56 269.801,56 C273.135,56 275.667,54.884 277.347,52.68 C277.446,53.786 277.545,54.571 277.646,55.06 L277.724,55.432 L282.164,55.432 L282.013,54.848 C281.711,53.686 281.559,52.388 281.559,50.988 L281.559,50.988 Z" id="Fill-33" fill="#3F3B36"></path>
                <polyline id="Fill-34" fill="#3F3B36" points="306.396 48.326 301.66 34.009 298.418 34.009 294.067 48.194 289.509 34.009 285.009 34.009 292.09 55.432 295.651 55.432 299.944 41.293 304.621 55.432 308.139 55.432 314.922 34.009 311.124 34.009 306.396 48.326"></polyline>
                <path d="M333.382,46.062 C333.382,47.837 332.758,49.34 331.473,50.658 C330.191,51.974 328.597,52.612 326.596,52.612 C325.155,52.612 324.053,52.294 323.318,51.665 C322.595,51.049 322.243,50.327 322.243,49.459 C322.243,48.046 322.914,46.996 324.296,46.25 C325.753,45.463 327.849,45.064 330.523,45.064 C331.184,45.064 332.11,45.098 333.349,45.164 C333.371,45.498 333.382,45.797 333.382,46.062 Z M337.641,50.988 L337.641,42.286 C337.641,39.086 336.936,36.785 335.545,35.448 C334.158,34.117 331.823,33.441 328.604,33.441 C322.533,33.441 319.031,35.471 318.195,39.473 L318.096,39.952 L322.242,40.603 L322.342,40.182 C322.87,37.939 324.751,36.85 328.092,36.85 C329.474,36.85 330.591,37.053 331.414,37.452 C332.203,37.834 332.699,38.318 332.933,38.933 C333.159,39.53 333.287,40.494 333.312,41.802 C332.183,41.76 331.343,41.739 330.792,41.739 C326.01,41.739 322.696,42.42 320.664,43.822 C318.604,45.243 317.561,47.091 317.561,49.315 C317.561,51.151 318.296,52.744 319.745,54.052 C321.182,55.344 323.246,56 325.882,56 C329.216,56 331.748,54.884 333.428,52.68 C333.527,53.783 333.625,54.568 333.727,55.06 L333.804,55.432 L338.245,55.432 L338.094,54.848 C337.793,53.687 337.641,52.39 337.641,50.988 L337.641,50.988 Z" id="Fill-35" fill="#3F3B36"></path>
                <polygon id="Fill-36" fill="#3F3B36" points="343.815 31.291 348.521 31.291 348.521 26.808 343.815 26.808"></polygon>
                <polygon id="Fill-37" fill="#3F3B36" points="343.973 55.432 348.409 55.432 348.409 34.009 343.973 34.009"></polygon>
                <polygon id="Fill-38" fill="#3F3B36" points="354.718 31.291 359.424 31.291 359.424 26.808 354.718 26.808"></polygon>
                <polygon id="Fill-39" fill="#3F3B36" points="354.875 55.432 359.313 55.432 359.313 34.009 354.875 34.009"></polygon>
                <path d="M371.43,46.25 C372.887,45.463 374.982,45.064 377.657,45.064 C378.316,45.064 379.243,45.098 380.482,45.164 C380.504,45.498 380.515,45.797 380.515,46.062 C380.515,47.837 379.891,49.34 378.606,50.658 C377.324,51.974 375.729,52.612 373.729,52.612 C372.289,52.612 371.186,52.294 370.451,51.665 C369.728,51.049 369.376,50.327 369.376,49.459 C369.376,48.046 370.048,46.996 371.43,46.25 Z M384.773,50.988 L384.773,42.286 C384.773,39.086 384.068,36.785 382.678,35.448 C381.291,34.117 378.957,33.441 375.738,33.441 C369.668,33.441 366.165,35.471 365.329,39.472 L365.229,39.952 L369.375,40.603 L369.475,40.182 C370.004,37.939 371.885,36.85 375.225,36.85 C376.606,36.85 377.724,37.053 378.548,37.452 C379.337,37.834 379.833,38.318 380.066,38.933 C380.293,39.53 380.421,40.494 380.445,41.802 C379.316,41.76 378.477,41.739 377.925,41.739 C373.143,41.739 369.829,42.42 367.797,43.822 C365.738,45.242 364.694,47.09 364.694,49.315 C364.694,51.151 365.43,52.744 366.879,54.052 C368.314,55.344 370.379,56 373.016,56 C376.35,56 378.881,54.885 380.562,52.68 C380.66,53.784 380.759,54.568 380.86,55.06 L380.938,55.432 L385.378,55.432 L385.227,54.849 C384.926,53.685 384.773,52.386 384.773,50.988 L384.773,50.988 Z" id="Fill-40" fill="#3F3B36"></path>
                <path d="M406.191,34.707 C404.936,33.868 403.403,33.441 401.637,33.441 C399.004,33.441 396.771,34.566 394.984,36.791 L394.984,34.009 L390.793,34.009 L390.793,55.432 L395.23,55.432 L395.23,43.727 C395.23,41.734 395.8,40.114 396.923,38.912 C398.054,37.702 399.413,37.113 401.078,37.113 C402.27,37.113 403.251,37.455 404.079,38.158 C404.874,38.834 405.276,40.06 405.276,41.799 L405.276,55.432 L409.489,55.432 L409.489,43.118 C409.489,40.444 409.261,38.631 408.79,37.573 C408.317,36.509 407.442,35.545 406.191,34.707" id="Fill-41" fill="#3F3B36"></path>
                <path d="M432.707,42.245 L439.851,42.245 C441.536,42.245 442.809,42.46 443.631,42.883 C444.45,43.306 445.066,43.887 445.517,44.661 C445.964,45.431 446.19,46.276 446.19,47.175 C446.19,48.444 445.714,49.448 444.733,50.242 C443.74,51.047 442.285,51.455 440.409,51.455 L432.707,51.455 L432.707,42.245 Z M444.046,37.387 C443.219,38.242 441.477,38.675 438.868,38.675 L432.707,38.675 L432.707,30.56 L439.851,30.56 C441.695,30.56 443.089,30.922 443.99,31.636 C444.87,32.334 445.298,33.224 445.298,34.353 C445.298,35.523 444.889,36.515 444.046,37.387 Z M445.685,40.21 C448.565,39.002 450.023,36.919 450.023,34.004 C450.023,32.094 449.233,30.396 447.677,28.958 C446.129,27.531 443.751,26.808 440.609,26.808 L428.093,26.808 L428.093,55.432 L440.609,55.432 C444.075,55.432 446.692,54.649 448.388,53.107 C450.096,51.555 450.962,49.598 450.962,47.291 C450.962,45.565 450.4,43.999 449.295,42.632 C448.438,41.576 447.228,40.765 445.685,40.21 L445.685,40.21 Z" id="Fill-42" fill="#3F3B36"></path>
                <path d="M470.955,46.062 C470.955,47.836 470.331,49.34 469.046,50.658 C467.765,51.974 466.17,52.612 464.169,52.612 C462.729,52.612 461.626,52.294 460.891,51.665 C460.167,51.049 459.815,50.327 459.815,49.459 C459.815,48.046 460.487,46.996 461.869,46.25 C463.326,45.463 465.422,45.064 468.097,45.064 C468.756,45.064 469.683,45.098 470.922,45.164 C470.944,45.498 470.955,45.797 470.955,46.062 Z M475.213,50.988 L475.213,42.286 C475.213,39.086 474.508,36.785 473.117,35.448 C471.73,34.117 469.396,33.441 466.178,33.441 C460.107,33.441 456.604,35.471 455.769,39.472 L455.668,39.952 L459.814,40.603 L459.914,40.182 C460.443,37.939 462.324,36.85 465.664,36.85 C467.047,36.85 468.164,37.053 468.987,37.452 C469.776,37.834 470.272,38.318 470.506,38.933 C470.732,39.53 470.86,40.494 470.885,41.802 C469.756,41.76 468.916,41.739 468.365,41.739 C463.583,41.739 460.27,42.42 458.237,43.822 C456.178,45.242 455.134,47.09 455.134,49.315 C455.134,51.151 455.869,52.744 457.318,54.052 C458.755,55.344 460.819,56 463.455,56 C466.789,56 469.321,54.884 471.001,52.68 C471.101,53.789 471.199,54.573 471.3,55.06 L471.377,55.432 L475.818,55.432 L475.667,54.848 C475.365,53.686 475.213,52.386 475.213,50.988 L475.213,50.988 Z" id="Fill-43" fill="#3F3B36"></path>
                <path d="M496.175,34.707 C494.919,33.868 493.387,33.441 491.619,33.441 C488.986,33.441 486.754,34.566 484.967,36.791 L484.967,34.009 L480.776,34.009 L480.776,55.432 L485.214,55.432 L485.214,43.727 C485.214,41.732 485.783,40.113 486.906,38.912 C488.036,37.701 489.396,37.113 491.061,37.113 C492.252,37.113 493.233,37.455 494.062,38.158 C494.856,38.834 495.259,40.059 495.259,41.799 L495.259,55.432 L499.472,55.432 L499.472,43.118 C499.472,40.443 499.243,38.629 498.773,37.573 C498.301,36.51 497.426,35.545 496.175,34.707" id="Fill-44" fill="#3F3B36"></path>
                <polyline id="Fill-45" fill="#3F3B36" points="516.552 41.739 524.118 34.009 519.068 34.009 509.261 43.893 509.261 26.808 504.824 26.808 504.824 55.432 509.261 55.432 509.261 48.823 513.588 44.298 520 55.432 524.723 55.432 516.552 41.739"></polyline>
            </g>
        </g>
    </g>
</svg>